<?xml version="1.0" standalone="no"?>
<!DOCTYPE svg PUBLIC "-//W3C//DTD SVG 20010904//EN"
 "http://www.w3.org/TR/2001/REC-SVG-20010904/DTD/svg10.dtd">
<svg version="1.0" xmlns="http://www.w3.org/2000/svg"
 width="260.000000pt" height="260.000000pt" viewBox="0 0 260.000000 260.000000"
 preserveAspectRatio="xMidYMid meet">
<metadata>
Created by potrace 1.11, written by Peter Selinger 2001-2013
</metadata>
<g transform="translate(0.000000,260.000000) scale(0.100000,-0.100000)"
fill="#000000" stroke="none">
<path d="M1184 2481 c-3 -3 -18 -6 -34 -7 -16 -1 -55 -8 -87 -15 -32 -7 -62
-14 -68 -15 -5 0 -19 -4 -30 -8 -11 -5 -27 -10 -35 -13 -8 -4 -19 -7 -25 -8
-27 -4 -145 -59 -186 -87 -14 -9 -29 -15 -32 -11 -4 3 -9 -2 -13 -11 -3 -9
-10 -13 -15 -10 -5 3 -9 1 -9 -5 0 -5 -8 -12 -17 -15 -10 -3 -33 -20 -51 -36
-17 -17 -32 -29 -32 -26 0 11 -156 -149 -186 -189 -16 -22 -33 -43 -39 -47 -7
-5 -7 -8 0 -8 6 0 6 -3 -1 -8 -6 -4 -24 -29 -39 -57 -16 -27 -33 -52 -37 -55
-4 -3 -9 -16 -11 -29 -2 -12 -10 -27 -18 -32 -8 -5 -10 -9 -6 -9 4 0 2 -10 -5
-22 -6 -13 -13 -30 -14 -38 -2 -8 -7 -23 -12 -35 -19 -42 -31 -88 -26 -96 3
-5 0 -9 -7 -9 -7 0 -10 -2 -7 -5 3 -4 1 -25 -4 -48 -15 -67 -20 -125 -20 -232
0 -97 2 -119 17 -215 4 -25 7 -51 8 -57 0 -7 4 -13 9 -13 5 0 7 -4 4 -8 -8
-14 42 -154 89 -247 25 -49 70 -124 101 -165 57 -78 182 -206 231 -237 15 -10
32 -23 36 -30 4 -7 15 -13 22 -13 8 0 15 -5 15 -11 0 -5 4 -7 10 -4 5 3 10 2
10 -2 0 -5 17 -17 38 -28 20 -10 43 -24 51 -29 7 -6 20 -11 29 -12 8 -2 18 -8
22 -14 4 -7 9 -11 11 -10 5 2 33 -7 93 -31 26 -10 52 -17 56 -14 5 3 11 1 14
-4 5 -8 33 -15 101 -26 6 -1 12 -3 15 -5 3 -1 23 -4 45 -5 22 -2 40 -4 40 -5
0 -8 153 -4 164 5 11 7 13 7 7 -2 -5 -9 0 -11 21 -7 15 3 48 7 73 8 25 2 45 5
45 6 0 2 14 4 30 5 17 2 30 4 30 5 0 1 7 3 15 5 8 2 25 6 38 9 12 3 30 8 40
10 9 2 42 14 72 26 30 12 70 28 88 34 18 7 29 16 25 19 -3 4 2 7 12 7 19 0
116 56 154 89 13 12 27 21 31 21 3 0 48 41 100 90 52 50 91 90 87 90 -4 0 7
14 25 30 17 17 27 30 22 30 -5 0 -4 4 1 8 20 13 124 193 130 222 1 3 9 23 19
45 9 22 18 48 19 58 1 9 6 17 11 17 5 0 7 3 3 6 -3 3 -1 17 4 31 5 14 12 41
15 61 3 19 8 44 10 56 26 120 19 369 -13 471 -4 11 -7 27 -9 35 -1 8 -9 34
-17 58 -9 23 -17 46 -18 50 -9 42 -100 222 -112 222 -6 0 -8 3 -4 6 5 5 -10
27 -40 59 -7 8 -13 17 -13 21 0 3 -10 15 -22 25 -11 11 -18 19 -15 19 11 0
-113 121 -168 165 -27 22 -52 43 -53 47 -2 5 -8 6 -13 2 -5 -3 -9 0 -9 5 0 6
-5 11 -10 11 -6 0 -20 9 -32 20 -12 10 -25 17 -30 14 -4 -3 -8 -1 -8 3 0 10
-69 43 -88 43 -7 0 -12 3 -12 8 0 6 -89 44 -115 48 -5 1 -13 3 -17 4 -5 1 -11
3 -15 5 -5 1 -15 5 -23 8 -8 3 -28 8 -45 11 -16 3 -43 8 -60 11 -16 4 -41 8
-55 9 -14 1 -30 5 -37 9 -6 4 -14 3 -18 -3 -4 -6 -12 -7 -18 -3 -13 8 -195 11
-203 4z m261 -86 c28 -3 60 -7 72 -8 13 -2 26 -6 29 -10 4 -4 19 -7 34 -7 15
0 30 -3 34 -7 4 -5 11 -8 14 -8 16 -1 88 -28 100 -38 6 -5 12 -7 12 -3 0 8
115 -53 180 -96 27 -18 50 -36 50 -40 0 -5 6 -8 13 -8 17 0 199 -188 233 -242
72 -111 133 -238 150 -310 1 -5 3 -9 4 -10 1 -2 4 -16 6 -32 2 -16 7 -32 11
-35 4 -3 9 -19 11 -36 2 -16 5 -52 8 -80 13 -118 7 -275 -11 -287 -6 -5 -5 -8
3 -8 8 0 10 -5 6 -12 -4 -6 -8 -23 -10 -37 -1 -14 -3 -27 -4 -28 -1 -2 -3 -6
-4 -10 -25 -96 -62 -198 -79 -220 -5 -7 -6 -13 -1 -13 5 0 4 -4 -1 -8 -6 -4
-22 -29 -35 -55 -14 -26 -33 -57 -43 -68 -10 -10 -15 -19 -12 -19 3 0 1 -6 -5
-12 -39 -47 -50 -62 -50 -70 0 -5 -4 -6 -10 -3 -5 3 -10 2 -10 -4 0 -14 -88
-101 -102 -101 -6 0 -8 -3 -5 -6 3 -4 -13 -20 -36 -37 -23 -17 -43 -34 -45
-39 -2 -4 -10 -8 -18 -8 -8 0 -14 -5 -14 -11 0 -5 -4 -8 -8 -5 -5 3 -19 -5
-33 -17 -14 -12 -31 -23 -39 -25 -8 -2 -18 -8 -21 -14 -3 -5 -9 -9 -13 -9 -3
1 -19 -5 -34 -12 -15 -8 -45 -20 -67 -27 -22 -7 -46 -17 -53 -23 -7 -5 -15 -7
-19 -4 -3 4 -11 3 -17 -2 -11 -8 -109 -32 -124 -30 -4 1 -9 0 -12 -1 -33 -12
-283 -17 -332 -6 -16 3 -40 8 -55 11 -16 3 -39 8 -53 12 -14 3 -31 5 -37 4 -7
-1 -13 4 -13 10 0 7 -3 10 -6 6 -17 -17 -230 86 -337 165 -113 81 -297 289
-297 335 0 8 -4 11 -10 8 -6 -3 -10 -1 -10 4 0 6 -13 38 -29 71 -42 87 -80
206 -86 270 -2 19 -4 35 -5 35 -12 0 -16 236 -5 320 4 33 8 68 8 78 1 9 4 17
8 17 3 0 10 19 14 43 10 53 10 55 25 92 6 17 11 30 10 30 -7 0 98 188 125 227
53 73 176 208 190 208 3 0 17 11 31 25 14 14 29 25 33 25 4 0 20 10 34 23 15
12 48 33 74 47 27 13 51 28 54 33 3 5 8 8 10 7 2 -1 17 3 32 9 16 6 33 11 38
11 5 0 9 5 9 11 0 5 4 8 8 5 5 -3 22 2 38 10 16 9 30 15 32 14 1 -1 35 6 75
15 138 30 259 36 392 20z"/>
<path d="M590 2038 c0 -3 -9 -10 -20 -13 -11 -4 -18 -11 -15 -16 4 -5 2 -9 -3
-9 -5 0 -20 -15 -33 -34 -13 -19 -27 -32 -31 -30 -4 3 -8 0 -8 -5 0 -6 -16
-34 -36 -62 -30 -40 -34 -53 -24 -62 10 -9 11 -9 6 1 -5 8 0 12 13 12 12 0 21
5 21 11 0 5 4 8 9 4 5 -3 12 -1 16 5 4 6 12 7 22 1 9 -5 29 -5 44 -1 17 5 31
4 38 -3 6 -6 11 -7 11 -2 0 11 51 12 68 1 7 -4 12 -4 12 1 0 9 57 9 67 0 3 -4
12 -2 19 4 8 7 14 7 18 0 4 -7 15 -7 30 -1 13 5 26 6 29 4 8 -9 57 -12 57 -4
0 9 32 6 48 -4 7 -4 12 -2 12 4 0 6 5 8 12 4 16 -10 48 -13 48 -5 0 8 69 5 77
-3 3 -3 13 -1 23 4 11 6 23 4 37 -5 16 -11 19 -23 17 -60 -2 -29 1 -45 8 -45
6 0 8 -3 4 -7 -7 -7 -206 -13 -206 -6 0 2 7 20 15 40 8 19 15 36 15 37 0 1
-246 -2 -263 -3 -4 -1 0 -12 9 -26 29 -45 16 -52 -98 -50 -56 0 -108 0 -114
-2 -13 -5 -63 -112 -61 -133 0 -3 -5 -16 -12 -29 -7 -13 -14 -33 -16 -45 -2
-11 -8 -46 -13 -76 -10 -54 -8 -251 2 -300 19 -87 79 -246 108 -285 48 -64 78
-106 78 -110 0 -5 51 -56 113 -111 26 -23 33 -38 32 -60 -2 -16 -3 -38 -4 -49
-1 -11 -12 -32 -26 -47 -29 -31 -31 -38 -10 -38 8 0 15 -4 15 -8 0 -5 16 -14
35 -22 19 -8 35 -17 35 -21 0 -7 39 -22 53 -20 4 1 7 -3 7 -9 0 -5 11 -10 25
-10 14 0 25 -5 25 -10 0 -6 3 -9 8 -9 17 3 72 -14 72 -23 0 -5 5 -6 10 -3 7 4
3 18 -9 38 -11 18 -21 43 -23 57 -2 14 -6 30 -9 35 -3 6 -2 24 2 40 3 17 7 25
8 19 1 -10 55 -29 74 -25 4 0 7 -3 7 -8 0 -5 6 -8 13 -8 6 1 31 -2 53 -6 37
-8 41 -11 39 -35 -3 -36 -16 -76 -27 -83 -4 -3 -10 -15 -13 -27 -3 -18 1 -22
23 -23 52 -2 117 -9 129 -13 7 -3 13 -1 13 5 0 6 7 6 20 -1 11 -6 20 -7 20 -2
0 5 15 8 33 7 46 -3 60 4 46 21 -6 8 -8 14 -4 14 4 0 0 10 -8 23 -8 13 -20 40
-25 60 -10 36 -10 37 21 42 122 20 191 39 215 58 10 8 10 13 0 26 -10 13 -10
14 1 4 14 -12 22 -83 10 -83 -3 0 -6 -14 -7 -30 0 -17 -10 -46 -22 -66 l-22
-35 25 5 c14 2 35 9 46 16 12 6 21 8 21 5 0 -3 12 1 28 9 15 9 38 20 52 26 42
17 124 67 128 78 1 5 -3 16 -11 24 -17 17 -29 52 -33 95 -2 26 6 40 37 73 21
22 39 38 39 35 0 -5 51 51 73 80 4 5 15 20 25 32 10 12 27 38 37 57 11 20 23
36 27 36 5 0 8 4 8 9 0 5 8 26 17 47 31 71 35 69 -112 68 -73 -1 -136 -4 -141
-7 -5 -3 -9 109 -9 263 0 263 0 267 20 261 11 -4 71 -6 133 -5 61 0 112 -3
112 -8 0 -4 9 -8 20 -8 11 0 20 -5 20 -11 0 -5 5 -7 10 -4 6 3 7 18 4 33 -10
43 -73 195 -83 201 -5 3 -61 6 -124 6 l-115 -1 10 25 c5 14 15 32 21 40 9 12
9 13 0 7 -7 -4 -13 -4 -13 1 0 8 -239 7 -248 -2 -3 -2 0 -10 5 -17 6 -7 12
-22 15 -34 5 -20 1 -20 -121 -20 l-126 0 3 64 c3 57 6 63 23 59 10 -3 19 -1
19 4 0 6 8 5 20 -1 11 -6 20 -7 20 -2 0 10 30 9 47 -1 6 -4 14 -1 16 5 4 9 6
9 6 1 1 -8 10 -9 29 -3 16 4 36 4 45 -2 10 -5 17 -5 17 0 0 10 30 9 48 -2 7
-4 12 -2 12 4 0 6 5 8 12 4 18 -11 48 -12 48 -2 0 5 9 4 20 -2 11 -6 20 -7 20
-2 0 10 30 9 48 -2 7 -4 12 -2 12 4 0 6 5 8 12 4 16 -10 48 -13 48 -5 0 6 40
5 93 -2 15 -2 27 -1 27 3 0 9 32 6 48 -4 7 -4 12 -2 12 5 0 8 3 9 13 0 8 -6
16 -8 19 -5 4 3 24 -3 47 -14 39 -19 50 -12 24 16 -7 7 -13 20 -13 28 0 8 -3
14 -7 14 -5 1 -24 23 -43 50 -19 27 -51 64 -71 82 l-36 33 -712 0 c-391 0
-711 -3 -711 -7z m181 -537 c5 -26 3 -591 -2 -591 -9 0 -59 77 -59 90 0 5 -5
10 -12 10 -6 0 -9 3 -6 6 4 3 -2 24 -12 47 -10 23 -16 45 -13 50 3 5 1 12 -5
16 -6 4 -13 27 -15 53 -3 25 -8 52 -12 58 -6 9 -4 11 4 5 10 -5 11 -3 4 11
-12 23 -6 114 12 196 4 15 6 31 5 35 -1 4 7 10 17 14 23 9 93 9 94 0z m404
-111 c0 -76 -4 -116 -10 -112 -5 4 -48 7 -94 7 -84 0 -85 1 -92 28 -4 15 -4
27 1 27 4 0 4 18 0 40 -4 22 -3 40 2 40 5 0 4 9 -2 20 -6 11 -7 20 -2 20 5 0
7 10 5 23 -5 23 -4 24 94 24 l98 1 0 -118z m450 6 l0 -111 -107 0 c-58 0 -110
-3 -114 -8 -18 -17 -22 -1 -23 100 -1 58 -2 109 -3 112 0 3 0 9 1 12 0 3 56 5
124 6 l122 0 0 -111z m-232 -191 c4 -8 3 -16 -1 -19 -4 -3 -9 4 -9 15 -2 23 3
25 10 4z m1 -101 c3 -8 2 -12 -4 -9 -6 3 -10 10 -10 16 0 14 7 11 14 -7z
m-224 -36 c3 -3 5 -100 4 -215 l-1 -208 -24 3 c-13 1 -31 5 -39 9 -8 3 -17 7
-20 7 -3 1 -31 12 -63 25 -46 19 -55 26 -46 37 6 8 8 14 3 14 -7 0 -9 196 -4
322 0 4 10 8 23 10 40 6 162 3 167 -4z m445 3 c7 -1 11 -66 11 -191 0 -104 -3
-187 -7 -184 -5 2 -25 -3 -46 -12 -64 -27 -117 -42 -168 -48 l-30 -3 3 221 3
221 112 -2 c62 0 117 -2 122 -2z m238 -125 c3 -8 0 -22 -8 -32 -12 -16 -13
-15 -12 14 2 33 11 42 20 18z m-222 -323 c13 -16 12 -17 -3 -4 -17 13 -22 21
-14 21 2 0 10 -8 17 -17z m-4 -55 c2 -17 0 -19 -7 -8 -5 8 -6 18 -4 22 8 12
10 10 11 -14z"/>
</g>
</svg>
